<?xml version="1.0" encoding="UTF-8" standalone="no"?>
<svg
   height="800"
   width="1200"
   viewBox="-8.265855 -5.2235 71.63741 31.341"
   version="1.1"
   id="svg1"
   sodipodi:docname="AMDryzen.svg"
   inkscape:export-filename="..\Logos\AMDryzen\AMDryzen_Logo.svg"
   inkscape:export-xdpi="96"
   inkscape:export-ydpi="96"
   xmlns:inkscape="http://www.inkscape.org/namespaces/inkscape"
   xmlns:sodipodi="http://sodipodi.sourceforge.net/DTD/sodipodi-0.dtd"
   xmlns="http://www.w3.org/2000/svg"
   xmlns:svg="http://www.w3.org/2000/svg">
  <defs
     id="defs1" />
  <sodipodi:namedview
     id="namedview1"
     pagecolor="#ffffff"
     bordercolor="#000000"
     borderopacity="0.25"
     inkscape:showpageshadow="2"
     inkscape:pageopacity="0.0"
     inkscape:pagecheckerboard="0"
     inkscape:deskcolor="#d1d1d1"
     inkscape:export-bgcolor="#ffffffff" />
  <path
     fill="#231f20"
     d="M 2.836,0.5431 0,7.5768 H 1.8563 L 2.3823,6.184 H 5.5277 L 6.1052,7.5768 H 7.9925 L 4.8676,0.5431 Z m 1.0417,1.681 1.1346,2.733 H 2.8466 Z M 14.8482,0.5432 h 1.5261 V 7.577 H 14.621 V 3.1834 L 12.7238,5.39 H 12.4556 L 10.558,3.1834 V 7.5769 H 8.8047 V 0.5432 h 1.5265 l 2.2581,2.6092 z m 4.6179,5.7448 h 1.1448 c 1.7632,0 2.2895,-1.1967 2.2895,-2.2279 0,-1.2068 -0.6498,-2.2274 -2.3103,-2.2274 h -1.124 z M 20.817,0.5432 c 2.5682,0 3.8876,1.5984 3.8876,3.527 0,2.0211 -1.278,3.5067 -4.0834,3.5067 H 17.7129 V 0.5433 Z M 31.82,2.2112 H 28.193 L 25.9822,0 h 8.0482 V 8.0486 L 31.82,5.8378 Z m -3.6295,3.629 V 2.6543 l -2.276,2.2758 V 8.1164 H 29.1 l 2.2758,-2.2762 z m -5.8587,7.7318 h 6.3609 l -6.361,5.4777 v 1.8429 h 9.1462 V 19.064 h -6.36 l 6.36,-5.4776 v -1.8432 h -9.1461 z m -6.7362,1.8003 -2.6187,-3.629 h -2.2606 l 3.956,5.4888 v 3.6605 h 1.8282 V 17.232 l 3.9754,-5.4888 h -2.261 z M 34.0333,13.5724 H 43.18 v -1.8302 h -9.1468 z m 0,1.8306 v 5.491 H 43.18 V 19.0638 H 35.8634 V 17.2336 H 43.18 V 15.403 Z M 1.8304,17.2332 H 5.2075 L 7.321,20.8936 H 9.4345 L 7.321,17.2332 h 4e-4 c 1.011,0 1.8305,-0.8195 1.8305,-1.8306 v -1.8302 c 0,-1.0107 -0.8195,-1.8302 -1.8305,-1.8302 H 2e-4 v 1.8302 h 7.1913 c 0.072,0 0.1299,0.0582 0.1299,0.1298 v 1.5706 A 0.1295,0.1295 0 0 1 7.1915,15.4026 H 2e-4 v 5.491 H 1.8304 Z M 53.2773,11.745 v 6.3606 l -5.478,-6.3606 h -1.8425 v 9.1462 h 1.8285 v -6.36 l 5.4775,6.36 h 1.843 V 11.745 Z"
     id="path1" />
</svg>
